<svg xmlns="http://www.w3.org/2000/svg" width="480" height="540" viewBox="0 0 480 540"><defs><linearGradient id="col" x1="0" y1="0" x2="1" y2="0"><stop offset="0" stop-color="#fffaf0"/><stop offset="1" stop-color="#d9c9a3"/></linearGradient><linearGradient id="roof" x1="0" y1="0" x2="0" y2="1"><stop offset="0" stop-color="#e07a55"/><stop offset="1" stop-color="#b6482c"/></linearGradient><linearGradient id="marble" x1="0" y1="0" x2="0" y2="1"><stop offset="0" stop-color="#fbf6ea"/><stop offset="1" stop-color="#d8cbb0"/></linearGradient><linearGradient id="wall" x1="0" y1="0" x2="0" y2="1"><stop offset="0" stop-color="#f2e6cf"/><stop offset="1" stop-color="#c8b48d"/></linearGradient><linearGradient id="sky" x1="0" y1="0" x2="0" y2="1"><stop offset="0" stop-color="#6fc3ff"/><stop offset="1" stop-color="#dff4ff"/></linearGradient><linearGradient id="grass" x1="0" y1="0" x2="0" y2="1"><stop offset="0" stop-color="#8fd25a"/><stop offset="1" stop-color="#4f9a3a"/></linearGradient><linearGradient id="sea" x1="0" y1="0" x2="0" y2="1"><stop offset="0" stop-color="#3bb8e8"/><stop offset="1" stop-color="#1c73b8"/></linearGradient><linearGradient id="sand" x1="0" y1="0" x2="0" y2="1"><stop offset="0" stop-color="#f2d7a0"/><stop offset="1" stop-color="#d9b578"/></linearGradient><radialGradient id="glow" cx="0.5" cy="0.5" r="0.6"><stop offset="0" stop-color="rgba(255,255,255,0.9)"/><stop offset="1" stop-color="rgba(255,255,255,0)"/></radialGradient><linearGradient id="gold" x1="0" y1="0" x2="0" y2="1"><stop offset="0" stop-color="#ffe08a"/><stop offset="1" stop-color="#d9a02a"/></linearGradient><linearGradient id="purple" x1="0" y1="0" x2="0" y2="1"><stop offset="0" stop-color="#8d4be0"/><stop offset="1" stop-color="#5a2a9c"/></linearGradient><linearGradient id="gem" x1="0" y1="0" x2="0" y2="1"><stop offset="0" stop-color="#ff7ae8"/><stop offset="1" stop-color="#b0189a"/></linearGradient><linearGradient id="gemg" x1="0" y1="0" x2="0" y2="1"><stop offset="0" stop-color="#7dff9a"/><stop offset="1" stop-color="#12a04a"/></linearGradient><linearGradient id="skin" x1="0" y1="0" x2="0" y2="1"><stop offset="0" stop-color="#ffd9b3"/><stop offset="1" stop-color="#e8b088"/></linearGradient><linearGradient id="hair" x1="0" y1="0" x2="0" y2="1"><stop offset="0" stop-color="#8a4b22"/><stop offset="1" stop-color="#5c2f12"/></linearGradient><linearGradient id="tunic" x1="0" y1="0" x2="0" y2="1"><stop offset="0" stop-color="#ffffff"/><stop offset="1" stop-color="#d8d3e6"/></linearGradient><linearGradient id="cape" x1="0" y1="0" x2="0" y2="1"><stop offset="0" stop-color="#9a5cf0"/><stop offset="1" stop-color="#5a2a9c"/></linearGradient><linearGradient id="stone" x1="0" y1="0" x2="0" y2="1"><stop offset="0" stop-color="#c9d3d6"/><stop offset="1" stop-color="#7f8f94"/></linearGradient><linearGradient id="bronze" x1="0" y1="0" x2="0" y2="1"><stop offset="0" stop-color="#d59a4a"/><stop offset="1" stop-color="#8a5a1e"/></linearGradient><linearGradient id="lion" x1="0" y1="0" x2="0" y2="1"><stop offset="0" stop-color="#e9b25a"/><stop offset="1" stop-color="#b8762a"/></linearGradient><linearGradient id="mane" x1="0" y1="0" x2="0" y2="1"><stop offset="0" stop-color="#a8541e"/><stop offset="1" stop-color="#6e3210"/></linearGradient><linearGradient id="scale" x1="0" y1="0" x2="0" y2="1"><stop offset="0" stop-color="#5fb37a"/><stop offset="1" stop-color="#2c6a44"/></linearGradient><linearGradient id="toga" x1="0" y1="0" x2="0" y2="1"><stop offset="0" stop-color="#fbf7ee"/><stop offset="1" stop-color="#d9d2c2"/></linearGradient><linearGradient id="togaPurple" x1="0" y1="0" x2="0" y2="1"><stop offset="0" stop-color="#7a3ccf"/><stop offset="1" stop-color="#4b2288"/></linearGradient><linearGradient id="grey" x1="0" y1="0" x2="0" y2="1"><stop offset="0" stop-color="#e6e6ea"/><stop offset="1" stop-color="#a7a7b3"/></linearGradient><linearGradient id="floor" x1="0" y1="0" x2="0" y2="1"><stop offset="0" stop-color="#e8dcc3"/><stop offset="1" stop-color="#c9b894"/></linearGradient><linearGradient id="parchment" x1="0" y1="0" x2="0" y2="1"><stop offset="0" stop-color="#fff4d6"/><stop offset="1" stop-color="#e9cf95"/></linearGradient><linearGradient id="red" x1="0" y1="0" x2="0" y2="1"><stop offset="0" stop-color="#e0333f"/><stop offset="1" stop-color="#8a1030"/></linearGradient><linearGradient id="green" x1="0" y1="0" x2="0" y2="1"><stop offset="0" stop-color="#5fb37a"/><stop offset="1" stop-color="#2c6a44"/></linearGradient><linearGradient id="brown" x1="0" y1="0" x2="0" y2="1"><stop offset="0" stop-color="#8a5a2a"/><stop offset="1" stop-color="#5c3a12"/></linearGradient><linearGradient id="saffron" x1="0" y1="0" x2="0" y2="1"><stop offset="0" stop-color="#ffd76a"/><stop offset="1" stop-color="#e09a2a"/></linearGradient><linearGradient id="dark" x1="0" y1="0" x2="0" y2="1"><stop offset="0" stop-color="#4a3560"/><stop offset="1" stop-color="#221733"/></linearGradient><linearGradient id="wood" x1="0" y1="0" x2="0" y2="1"><stop offset="0" stop-color="#d09a58"/><stop offset="1" stop-color="#9a6a32"/></linearGradient><linearGradient id="woodDark" x1="0" y1="0" x2="0" y2="1"><stop offset="0" stop-color="#7a4a20"/><stop offset="1" stop-color="#4a2a10"/></linearGradient><linearGradient id="teal" x1="0" y1="0" x2="0" y2="1"><stop offset="0" stop-color="#6fd6cc"/><stop offset="1" stop-color="#1f8a86"/></linearGradient><linearGradient id="crimson" x1="0" y1="0" x2="0" y2="1"><stop offset="0" stop-color="#d63a48"/><stop offset="1" stop-color="#7a1024"/></linearGradient><linearGradient id="curtain" x1="0" y1="0" x2="0" y2="1"><stop offset="0" stop-color="#8d4be0"/><stop offset="1" stop-color="#4b2288"/></linearGradient><linearGradient id="veil" x1="0" y1="0" x2="0" y2="1"><stop offset="0" stop-color="rgba(236,214,255,0.9)"/><stop offset="1" stop-color="rgba(190,150,240,0.35)"/></linearGradient><linearGradient id="maskFace" x1="0" y1="0" x2="0" y2="1"><stop offset="0" stop-color="#fbe6c4"/><stop offset="1" stop-color="#e6c091"/></linearGradient><linearGradient id="boot" x1="0" y1="0" x2="0" y2="1"><stop offset="0" stop-color="#9a3a3a"/><stop offset="1" stop-color="#5a1a1a"/></linearGradient></defs><ellipse cx="240" cy="512" rx="110" ry="22" fill="rgba(40,20,60,0.3)" /><rect x="190" y="400" width="40" height="96" rx="10" fill="url(#boot)" stroke="#3a2a1a" stroke-width="3" stroke-linejoin="round"/><path d="M198,418 l24,8 M222,418 l-24,8" stroke="#e0b24a" stroke-width="2.5" fill="none"/><path d="M198,434 l24,8 M222,434 l-24,8" stroke="#e0b24a" stroke-width="2.5" fill="none"/><path d="M198,450 l24,8 M222,450 l-24,8" stroke="#e0b24a" stroke-width="2.5" fill="none"/><path d="M198,466 l24,8 M222,466 l-24,8" stroke="#e0b24a" stroke-width="2.5" fill="none"/><rect x="184" y="480" width="52" height="18" rx="6" fill="#3a2a1a" stroke="#3a2a1a" stroke-width="3" stroke-linejoin="round"/><rect x="250" y="400" width="40" height="96" rx="10" fill="url(#boot)" stroke="#3a2a1a" stroke-width="3" stroke-linejoin="round"/><path d="M258,418 l24,8 M282,418 l-24,8" stroke="#e0b24a" stroke-width="2.5" fill="none"/><path d="M258,434 l24,8 M282,434 l-24,8" stroke="#e0b24a" stroke-width="2.5" fill="none"/><path d="M258,450 l24,8 M282,450 l-24,8" stroke="#e0b24a" stroke-width="2.5" fill="none"/><path d="M258,466 l24,8 M282,466 l-24,8" stroke="#e0b24a" stroke-width="2.5" fill="none"/><rect x="244" y="480" width="52" height="18" rx="6" fill="#3a2a1a" stroke="#3a2a1a" stroke-width="3" stroke-linejoin="round"/><path d="M156,260 L324,260 L350,450 L130,450 Z" fill="url(#dark)" stroke="#3a2a1a" stroke-width="3" stroke-linejoin="round"/><rect x="130" y="432" width="220" height="18" rx="4" fill="#e0b24a" /><rect x="232" y="262" width="16" height="170" rx="3" fill="#e0b24a" /><path d="M190,270 L180.0,440" stroke="#221733" stroke-width="3" opacity="0.6"/><path d="M290,270 L300.0,440" stroke="#221733" stroke-width="3" opacity="0.6"/><g transform="rotate(70 156 275)"><rect x="134" y="262" width="44" height="40" rx="12" fill="url(#dark)" stroke="#3a2a1a" stroke-width="3" stroke-linejoin="round"/><rect x="136" y="290" width="40" height="100" rx="18" fill="url(#skin)" stroke="#3a2a1a" stroke-width="3" stroke-linejoin="round"/><circle cx="156" cy="395" r="22" fill="url(#skin)" stroke="#3a2a1a" stroke-width="3" stroke-linejoin="round"/><rect x="144" y="389" width="12" height="36" rx="6" fill="url(#skin)" stroke="#3a2a1a" stroke-width="3" stroke-linejoin="round" transform="rotate(-36.0 156 395)"/><rect x="148" y="389" width="12" height="36" rx="6" fill="url(#skin)" stroke="#3a2a1a" stroke-width="3" stroke-linejoin="round" transform="rotate(-18.0 156 395)"/><rect x="152" y="389" width="12" height="36" rx="6" fill="url(#skin)" stroke="#3a2a1a" stroke-width="3" stroke-linejoin="round" transform="rotate(0 156 395)"/><rect x="156" y="389" width="12" height="36" rx="6" fill="url(#skin)" stroke="#3a2a1a" stroke-width="3" stroke-linejoin="round" transform="rotate(18.0 156 395)"/></g><g transform="rotate(-140 324 275)"><rect x="302" y="262" width="44" height="40" rx="12" fill="url(#dark)" stroke="#3a2a1a" stroke-width="3" stroke-linejoin="round"/><rect x="304" y="290" width="40" height="100" rx="18" fill="url(#skin)" stroke="#3a2a1a" stroke-width="3" stroke-linejoin="round"/><circle cx="324" cy="395" r="22" fill="url(#skin)" stroke="#3a2a1a" stroke-width="3" stroke-linejoin="round"/><rect x="312" y="389" width="12" height="36" rx="6" fill="url(#skin)" stroke="#3a2a1a" stroke-width="3" stroke-linejoin="round" transform="rotate(-36.0 324 395)"/><rect x="316" y="389" width="12" height="36" rx="6" fill="url(#skin)" stroke="#3a2a1a" stroke-width="3" stroke-linejoin="round" transform="rotate(-18.0 324 395)"/><rect x="320" y="389" width="12" height="36" rx="6" fill="url(#skin)" stroke="#3a2a1a" stroke-width="3" stroke-linejoin="round" transform="rotate(0 324 395)"/><rect x="324" y="389" width="12" height="36" rx="6" fill="url(#skin)" stroke="#3a2a1a" stroke-width="3" stroke-linejoin="round" transform="rotate(18.0 324 395)"/></g><rect x="214" y="220" width="52" height="40" rx="14" fill="url(#skin)" stroke="#3a2a1a" stroke-width="3" stroke-linejoin="round"/><circle cx="240" cy="178" r="90" fill="url(#skin)" stroke="#3a2a1a" stroke-width="3" stroke-linejoin="round"/><g transform="rotate(0 240 178)"><path d="M160.2,161.2 Q143.4,18.4 240.0,5.8 Q336.6,18.4 319.8,161.2 Z" fill="#3a2a1a" stroke="#3a2a1a" stroke-width="3" stroke-linejoin="round"/><path d="M189.6,119.2 Q182.9,68.8 189.6,50.3" stroke="rgba(255,255,255,0.35)" stroke-width="3.0" fill="none" stroke-linecap="round"/><path d="M214.8,119.2 Q208.1,68.8 214.8,38.6" stroke="rgba(255,255,255,0.35)" stroke-width="3.0" fill="none" stroke-linecap="round"/><path d="M240.0,119.2 Q233.3,68.8 240.0,26.8" stroke="rgba(255,255,255,0.35)" stroke-width="3.0" fill="none" stroke-linecap="round"/><path d="M265.2,119.2 Q258.5,68.8 265.2,38.6" stroke="rgba(255,255,255,0.35)" stroke-width="3.0" fill="none" stroke-linecap="round"/><path d="M290.4,119.2 Q283.7,68.8 290.4,50.3" stroke="rgba(255,255,255,0.35)" stroke-width="3.0" fill="none" stroke-linecap="round"/><ellipse cx="240" cy="178" rx="84" ry="94.08000000000001" fill="url(#maskFace)" stroke="#3a2a1a" stroke-width="3" stroke-linejoin="round"/><ellipse cx="204.72" cy="165.4" rx="15.12" ry="20.16" fill="#3a2a1a" /><path d="M181.2,147.8 L223.2,127.6" stroke="#3a2a1a" stroke-width="4.8" stroke-linecap="round" fill="none"/><ellipse cx="275.28" cy="165.4" rx="15.12" ry="20.16" fill="#3a2a1a" /><path d="M298.8,147.8 L256.8,127.6" stroke="#3a2a1a" stroke-width="4.8" stroke-linecap="round" fill="none"/><path d="M198.0,224.2 Q240.0,190.6 282.0,224.2 Q240.0,253.6 198.0,224.2 Z" fill="#3a2a1a" stroke="#3a2a1a" stroke-width="3" stroke-linejoin="round"/></g></svg>