<svg xmlns="http://www.w3.org/2000/svg" width="560" height="420" viewBox="0 0 560 420"><defs><linearGradient id="col" x1="0" y1="0" x2="1" y2="0"><stop offset="0" stop-color="#fffaf0"/><stop offset="1" stop-color="#d9c9a3"/></linearGradient><linearGradient id="roof" x1="0" y1="0" x2="0" y2="1"><stop offset="0" stop-color="#e07a55"/><stop offset="1" stop-color="#b6482c"/></linearGradient><linearGradient id="marble" x1="0" y1="0" x2="0" y2="1"><stop offset="0" stop-color="#fbf6ea"/><stop offset="1" stop-color="#d8cbb0"/></linearGradient><linearGradient id="wall" x1="0" y1="0" x2="0" y2="1"><stop offset="0" stop-color="#f2e6cf"/><stop offset="1" stop-color="#c8b48d"/></linearGradient><linearGradient id="sky" x1="0" y1="0" x2="0" y2="1"><stop offset="0" stop-color="#6fc3ff"/><stop offset="1" stop-color="#dff4ff"/></linearGradient><linearGradient id="grass" x1="0" y1="0" x2="0" y2="1"><stop offset="0" stop-color="#8fd25a"/><stop offset="1" stop-color="#4f9a3a"/></linearGradient><linearGradient id="sea" x1="0" y1="0" x2="0" y2="1"><stop offset="0" stop-color="#3bb8e8"/><stop offset="1" stop-color="#1c73b8"/></linearGradient><linearGradient id="sand" x1="0" y1="0" x2="0" y2="1"><stop offset="0" stop-color="#f2d7a0"/><stop offset="1" stop-color="#d9b578"/></linearGradient><radialGradient id="glow" cx="0.5" cy="0.5" r="0.6"><stop offset="0" stop-color="rgba(255,255,255,0.9)"/><stop offset="1" stop-color="rgba(255,255,255,0)"/></radialGradient><linearGradient id="gold" x1="0" y1="0" x2="0" y2="1"><stop offset="0" stop-color="#ffe08a"/><stop offset="1" stop-color="#d9a02a"/></linearGradient><linearGradient id="purple" x1="0" y1="0" x2="0" y2="1"><stop offset="0" stop-color="#8d4be0"/><stop offset="1" stop-color="#5a2a9c"/></linearGradient><linearGradient id="gem" x1="0" y1="0" x2="0" y2="1"><stop offset="0" stop-color="#ff7ae8"/><stop offset="1" stop-color="#b0189a"/></linearGradient><linearGradient id="gemg" x1="0" y1="0" x2="0" y2="1"><stop offset="0" stop-color="#7dff9a"/><stop offset="1" stop-color="#12a04a"/></linearGradient><linearGradient id="skin" x1="0" y1="0" x2="0" y2="1"><stop offset="0" stop-color="#ffd9b3"/><stop offset="1" stop-color="#e8b088"/></linearGradient><linearGradient id="hair" x1="0" y1="0" x2="0" y2="1"><stop offset="0" stop-color="#8a4b22"/><stop offset="1" stop-color="#5c2f12"/></linearGradient><linearGradient id="tunic" x1="0" y1="0" x2="0" y2="1"><stop offset="0" stop-color="#ffffff"/><stop offset="1" stop-color="#d8d3e6"/></linearGradient><linearGradient id="cape" x1="0" y1="0" x2="0" y2="1"><stop offset="0" stop-color="#9a5cf0"/><stop offset="1" stop-color="#5a2a9c"/></linearGradient><linearGradient id="stone" x1="0" y1="0" x2="0" y2="1"><stop offset="0" stop-color="#c9d3d6"/><stop offset="1" stop-color="#7f8f94"/></linearGradient><linearGradient id="bronze" x1="0" y1="0" x2="0" y2="1"><stop offset="0" stop-color="#d59a4a"/><stop offset="1" stop-color="#8a5a1e"/></linearGradient><linearGradient id="lion" x1="0" y1="0" x2="0" y2="1"><stop offset="0" stop-color="#e9b25a"/><stop offset="1" stop-color="#b8762a"/></linearGradient><linearGradient id="mane" x1="0" y1="0" x2="0" y2="1"><stop offset="0" stop-color="#a8541e"/><stop offset="1" stop-color="#6e3210"/></linearGradient><linearGradient id="scale" x1="0" y1="0" x2="0" y2="1"><stop offset="0" stop-color="#5fb37a"/><stop offset="1" stop-color="#2c6a44"/></linearGradient></defs><ellipse cx="280" cy="392" rx="250" ry="28" fill="rgba(40,20,60,0.25)" /><rect x="60" y="340" width="440" height="40" rx="6" fill="url(#marble)" stroke="#3a2a1a" stroke-width="3" stroke-linejoin="round"/><rect x="80" y="320" width="400" height="26" rx="6" fill="url(#marble)" stroke="#3a2a1a" stroke-width="3" stroke-linejoin="round"/><rect x="100" y="140" width="360" height="190" rx="8" fill="url(#wall)" stroke="#3a2a1a" stroke-width="3" stroke-linejoin="round"/><rect x="126.43333333333334" y="150" width="23.799999999999997" height="170" rx="3.5699999999999994" fill="url(#col)" /><rect x="123.57733333333334" y="144" width="29.511999999999997" height="10" rx="3" fill="#c9b88f" /><rect x="123.57733333333334" y="314" width="29.511999999999997" height="10" rx="3" fill="#c9b88f" /><rect x="183.1" y="150" width="23.799999999999997" height="170" rx="3.5699999999999994" fill="url(#col)" /><rect x="180.244" y="144" width="29.511999999999997" height="10" rx="3" fill="#c9b88f" /><rect x="180.244" y="314" width="29.511999999999997" height="10" rx="3" fill="#c9b88f" /><rect x="239.76666666666665" y="150" width="23.799999999999997" height="170" rx="3.5699999999999994" fill="url(#col)" /><rect x="236.91066666666666" y="144" width="29.511999999999997" height="10" rx="3" fill="#c9b88f" /><rect x="236.91066666666666" y="314" width="29.511999999999997" height="10" rx="3" fill="#c9b88f" /><rect x="296.43333333333334" y="150" width="23.799999999999997" height="170" rx="3.5699999999999994" fill="url(#col)" /><rect x="293.57733333333334" y="144" width="29.511999999999997" height="10" rx="3" fill="#c9b88f" /><rect x="293.57733333333334" y="314" width="29.511999999999997" height="10" rx="3" fill="#c9b88f" /><rect x="353.1" y="150" width="23.799999999999997" height="170" rx="3.5699999999999994" fill="url(#col)" /><rect x="350.244" y="144" width="29.511999999999997" height="10" rx="3" fill="#c9b88f" /><rect x="350.244" y="314" width="29.511999999999997" height="10" rx="3" fill="#c9b88f" /><rect x="409.76666666666665" y="150" width="23.799999999999997" height="170" rx="3.5699999999999994" fill="url(#col)" /><rect x="406.91066666666666" y="144" width="29.511999999999997" height="10" rx="3" fill="#c9b88f" /><rect x="406.91066666666666" y="314" width="29.511999999999997" height="10" rx="3" fill="#c9b88f" /><rect x="90" y="128" width="380" height="20" rx="4" fill="url(#marble)" stroke="#3a2a1a" stroke-width="3" stroke-linejoin="round"/><polygon points="80,136 280.0,40 480,136" fill="url(#roof)" stroke="#3a2a1a" stroke-width="3" stroke-linejoin="round"/><line x1="250.83333333333334" y1="54" x2="309.1666666666667" y2="54" stroke="#8f3a24" stroke-width="2" opacity="0.5"/><line x1="221.66666666666666" y1="68" x2="338.3333333333333" y2="68" stroke="#8f3a24" stroke-width="2" opacity="0.5"/><line x1="192.5" y1="82" x2="367.5" y2="82" stroke="#8f3a24" stroke-width="2" opacity="0.5"/><line x1="163.33333333333331" y1="96" x2="396.6666666666667" y2="96" stroke="#8f3a24" stroke-width="2" opacity="0.5"/><line x1="134.16666666666669" y1="110" x2="425.8333333333333" y2="110" stroke="#8f3a24" stroke-width="2" opacity="0.5"/><rect x="200" y="88" width="160" height="34" rx="4" fill="#f6eed9" stroke="#3a2a1a" stroke-width="2"/><text x="280" y="114" font-family="serif" font-size="26" font-weight="bold" text-anchor="middle" fill="#6a2fb0">SPQR</text><rect x="52" y="250" width="36" height="90" rx="4" fill="url(#marble)" stroke="#3a2a1a" stroke-width="3" stroke-linejoin="round"/><circle cx="70" cy="230" r="16" fill="#f4ecd8" stroke="#3a2a1a" stroke-width="3" stroke-linejoin="round"/><rect x="56" y="244" width="28" height="30" rx="6" fill="#f4ecd8" stroke="#3a2a1a" stroke-width="3" stroke-linejoin="round"/><rect x="472" y="250" width="36" height="90" rx="4" fill="url(#marble)" stroke="#3a2a1a" stroke-width="3" stroke-linejoin="round"/><circle cx="490" cy="230" r="16" fill="#f4ecd8" stroke="#3a2a1a" stroke-width="3" stroke-linejoin="round"/><rect x="476" y="244" width="28" height="30" rx="6" fill="#f4ecd8" stroke="#3a2a1a" stroke-width="3" stroke-linejoin="round"/><polygon points="150,170 180,170 180,221.48000000000002 165.0,236 150,221.48000000000002" fill="#6a2fb0" stroke="#3d1a66" stroke-width="2"/><rect x="146" y="166" width="38" height="8" rx="3" fill="#e0b24a" /><circle cx="165.0" cy="199.7" r="6.6" fill="#e0b24a" opacity="0.9"/><polygon points="380,170 410,170 410,221.48000000000002 395.0,236 380,221.48000000000002" fill="#6a2fb0" stroke="#3d1a66" stroke-width="2"/><rect x="376" y="166" width="38" height="8" rx="3" fill="#e0b24a" /><circle cx="395.0" cy="199.7" r="6.6" fill="#e0b24a" opacity="0.9"/><rect x="30" y="300" width="70" height="60" rx="4" fill="#c8a26a" stroke="#3a2a1a" stroke-width="3" stroke-linejoin="round"/><rect x="30.0" y="288" width="17.5" height="16" rx="0" fill="#e0333f" /><rect x="47.5" y="288" width="17.5" height="16" rx="0" fill="#ffffff" /><rect x="65.0" y="288" width="17.5" height="16" rx="0" fill="#e0333f" /><rect x="82.5" y="288" width="17.5" height="16" rx="0" fill="#ffffff" /></svg>