<svg xmlns="http://www.w3.org/2000/svg" width="500" height="560" viewBox="0 0 500 560"><defs><linearGradient id="col" x1="0" y1="0" x2="1" y2="0"><stop offset="0" stop-color="#fffaf0"/><stop offset="1" stop-color="#d9c9a3"/></linearGradient><linearGradient id="roof" x1="0" y1="0" x2="0" y2="1"><stop offset="0" stop-color="#e07a55"/><stop offset="1" stop-color="#b6482c"/></linearGradient><linearGradient id="marble" x1="0" y1="0" x2="0" y2="1"><stop offset="0" stop-color="#fbf6ea"/><stop offset="1" stop-color="#d8cbb0"/></linearGradient><linearGradient id="wall" x1="0" y1="0" x2="0" y2="1"><stop offset="0" stop-color="#f2e6cf"/><stop offset="1" stop-color="#c8b48d"/></linearGradient><linearGradient id="sky" x1="0" y1="0" x2="0" y2="1"><stop offset="0" stop-color="#6fc3ff"/><stop offset="1" stop-color="#dff4ff"/></linearGradient><linearGradient id="grass" x1="0" y1="0" x2="0" y2="1"><stop offset="0" stop-color="#8fd25a"/><stop offset="1" stop-color="#4f9a3a"/></linearGradient><linearGradient id="sea" x1="0" y1="0" x2="0" y2="1"><stop offset="0" stop-color="#3bb8e8"/><stop offset="1" stop-color="#1c73b8"/></linearGradient><linearGradient id="sand" x1="0" y1="0" x2="0" y2="1"><stop offset="0" stop-color="#f2d7a0"/><stop offset="1" stop-color="#d9b578"/></linearGradient><radialGradient id="glow" cx="0.5" cy="0.5" r="0.6"><stop offset="0" stop-color="rgba(255,255,255,0.9)"/><stop offset="1" stop-color="rgba(255,255,255,0)"/></radialGradient><linearGradient id="gold" x1="0" y1="0" x2="0" y2="1"><stop offset="0" stop-color="#ffe08a"/><stop offset="1" stop-color="#d9a02a"/></linearGradient><linearGradient id="purple" x1="0" y1="0" x2="0" y2="1"><stop offset="0" stop-color="#8d4be0"/><stop offset="1" stop-color="#5a2a9c"/></linearGradient><linearGradient id="gem" x1="0" y1="0" x2="0" y2="1"><stop offset="0" stop-color="#ff7ae8"/><stop offset="1" stop-color="#b0189a"/></linearGradient><linearGradient id="gemg" x1="0" y1="0" x2="0" y2="1"><stop offset="0" stop-color="#7dff9a"/><stop offset="1" stop-color="#12a04a"/></linearGradient><linearGradient id="skin" x1="0" y1="0" x2="0" y2="1"><stop offset="0" stop-color="#ffd9b3"/><stop offset="1" stop-color="#e8b088"/></linearGradient><linearGradient id="hair" x1="0" y1="0" x2="0" y2="1"><stop offset="0" stop-color="#8a4b22"/><stop offset="1" stop-color="#5c2f12"/></linearGradient><linearGradient id="tunic" x1="0" y1="0" x2="0" y2="1"><stop offset="0" stop-color="#ffffff"/><stop offset="1" stop-color="#d8d3e6"/></linearGradient><linearGradient id="cape" x1="0" y1="0" x2="0" y2="1"><stop offset="0" stop-color="#9a5cf0"/><stop offset="1" stop-color="#5a2a9c"/></linearGradient><linearGradient id="stone" x1="0" y1="0" x2="0" y2="1"><stop offset="0" stop-color="#c9d3d6"/><stop offset="1" stop-color="#7f8f94"/></linearGradient><linearGradient id="bronze" x1="0" y1="0" x2="0" y2="1"><stop offset="0" stop-color="#d59a4a"/><stop offset="1" stop-color="#8a5a1e"/></linearGradient><linearGradient id="lion" x1="0" y1="0" x2="0" y2="1"><stop offset="0" stop-color="#e9b25a"/><stop offset="1" stop-color="#b8762a"/></linearGradient><linearGradient id="mane" x1="0" y1="0" x2="0" y2="1"><stop offset="0" stop-color="#a8541e"/><stop offset="1" stop-color="#6e3210"/></linearGradient><linearGradient id="scale" x1="0" y1="0" x2="0" y2="1"><stop offset="0" stop-color="#5fb37a"/><stop offset="1" stop-color="#2c6a44"/></linearGradient></defs><ellipse cx="250" cy="530" rx="150" ry="26" fill="rgba(40,20,60,0.3)" /><rect x="168" y="400" width="64" height="110" rx="20" fill="#7fb87a" stroke="#3a2a1a" stroke-width="3" stroke-linejoin="round"/><rect x="162" y="490" width="76" height="28" rx="8" fill="#5a3a2a" stroke="#3a2a1a" stroke-width="3" stroke-linejoin="round"/><rect x="268" y="400" width="64" height="110" rx="20" fill="#7fb87a" stroke="#3a2a1a" stroke-width="3" stroke-linejoin="round"/><rect x="262" y="490" width="76" height="28" rx="8" fill="#5a3a2a" stroke="#3a2a1a" stroke-width="3" stroke-linejoin="round"/><path d="M120,210 L380,210 L400,420 L100,420 Z" fill="#8fd08a" stroke="#3a2a1a" stroke-width="3" stroke-linejoin="round"/><path d="M140,300 L360,300 L370,420 L130,420 Z" fill="#8a5a2a" stroke="#3a2a1a" stroke-width="3" stroke-linejoin="round"/><g transform="rotate(30 90 230)"><rect x="52" y="220" width="76" height="170" rx="30" fill="#8fd08a" stroke="#3a2a1a" stroke-width="3" stroke-linejoin="round"/><circle cx="90" cy="400" r="46" fill="#7fb87a" stroke="#3a2a1a" stroke-width="3" stroke-linejoin="round"/></g><g transform="rotate(-40 410 230)"><rect x="372" y="220" width="76" height="170" rx="30" fill="#8fd08a" stroke="#3a2a1a" stroke-width="3" stroke-linejoin="round"/><circle cx="410" cy="400" r="46" fill="#7fb87a" stroke="#3a2a1a" stroke-width="3" stroke-linejoin="round"/></g><rect x="380" y="60" width="30" height="260" rx="10" fill="#8a5a2a" stroke="#3a2a1a" stroke-width="3" stroke-linejoin="round" transform="rotate(-40 400 230)"/><rect x="210" y="180" width="80" height="40" rx="12" fill="#8fd08a" stroke="#3a2a1a" stroke-width="3" stroke-linejoin="round"/><circle cx="250" cy="120" r="100" fill="#8fd08a" stroke="#3a2a1a" stroke-width="3" stroke-linejoin="round"/><ellipse cx="250" cy="116" rx="44" ry="40" fill="#ffffff" stroke="#3a2a1a" stroke-width="3" stroke-linejoin="round"/><circle cx="254" cy="120" r="22" fill="#ff9a3c" /><circle cx="254" cy="120" r="10" fill="#3a2a1a" /><circle cx="262" cy="110" r="5" fill="#ffffff" /><path d="M200,80 q50,-30 100,0" fill="none" stroke="#3a2a1a" stroke-width="8" stroke-linecap="round"/><path d="M210,178 q40,26 80,0 l-10,-12 l-20,8 l-20,-8 l-20,8 Z" fill="#7a2a3a" stroke="#3a2a1a" stroke-width="3" stroke-linejoin="round"/><ellipse cx="146" cy="110" rx="16" ry="24" fill="#8fd08a" stroke="#3a2a1a" stroke-width="3" stroke-linejoin="round"/><ellipse cx="354" cy="110" rx="16" ry="24" fill="#8fd08a" stroke="#3a2a1a" stroke-width="3" stroke-linejoin="round"/></svg>